PathFileType	4	(X/Y/Z)	C:\Users\WrightLab\Desktop\Jo\P5V41.trc
DataRate	CameraRate	NumFrames	NumMarkers	Units	OrigDataRate	OrigDataStartFrame	OrigNumFrames
100.00	100.00	      102	19	mm	100.00	1	      1140
Frame#	Time	Headset_Front			Headset_Back			Headset_Left			Headset_Right			Left_Shoulder			Right_Shoulder			Sternum			C7			Left Elbow			Right Elbow			Left Wrist			Right Wrist			Left ASIS			Right ASIS			S2			Left Knee			Right Knee			Left Ankle			Right Ankle			
		X1	Y1	Z1	X2	Y2	Z2	X3	Y3	Z3	X4	Y4	Z4	X5	Y5	Z5	X6	Y6	Z6	X7	Y7	Z7	X8	Y8	Z8	X9	Y9	Z9	X10	Y10	Z10	X11	Y11	Z11	X12	Y12	Z12	X13	Y13	Z13	X14	Y14	Z14	X15	Y15	Z15	X16	Y16	Z16	X17	Y17	Z17	X18	Y18	Z18	X19	Y19	Z19	

1	0.000																																																	-542.93213	461.21786	-1472.81848							
2	0.010																																																	-542.89539	461.04337	-1472.42834							
3	0.020																																																	-544.23596	459.94269	-1477.18127							
4	0.030																																																	-544.16931	459.97800	-1477.09900							
5	0.040																																																	-544.11249	460.00919	-1477.02905							
6	0.050																																																	-544.02081	460.08405	-1476.91711							
7	0.060																																																	-544.01160	460.09006	-1476.90576							
8	0.070																																																	-542.70428	461.32407	-1472.63696							
9	0.080																																																	-542.63806	461.34573	-1472.58374							
10	0.090																																																	-543.60034	459.95996	-1476.62854							
11	0.100																																																	-542.61530	461.34320	-1472.56470							
12	0.110																																																	-542.53259	461.37827	-1472.49854							
13	0.120																																																	-542.54688	461.37228	-1472.51001							
14	0.130																																																	-542.56726	461.35690	-1472.52588							
15	0.140																																																	-542.56073	461.34354	-1472.51953							
16	0.150																																																	-542.57330	461.14859	-1472.16895							
17	0.160																																																	-542.87579	461.64883	-1472.50000							
18	0.170																																																	-542.62946	461.12567	-1472.21387							
19	0.180																																																	-542.64648	461.31177	-1472.58838							
20	0.190																																																	-543.06543	461.12778	-1472.48523							
21	0.200																																																	-543.09381	461.12097	-1472.50830							
22	0.210																																																	-543.57898	461.55630	-1472.98621							
23	0.220																																																	-543.72174	461.50128	-1473.10059							
24	0.230																																																	-543.51367	460.95413	-1472.84448							
25	0.240																																																	-543.98340	461.38443	-1473.30933							
26	0.250																																																	-544.10583	461.35452	-1473.40857							
27	0.260																																																	-544.20398	461.09491	-1473.21704							
28	0.270																																																	-544.27722	461.08362	-1473.27686							
29	0.280																																																	-544.41516	461.25342	-1473.65771							
30	0.290																																																	-544.44977	461.24747	-1473.68591							
31	0.300																																																	-544.20764	460.73032	-1473.40356							
32	0.310																																																	-544.54956	461.21567	-1473.76636							
33	0.320																																																	-544.60913	461.20261	-1473.81470							
34	0.330																																																	-545.70148	459.95285	-1478.19812							
35	0.340																																																	-545.61377	459.17624	-1478.87915							
36	0.350																																																	-545.67133	459.16928	-1478.95117							
37	0.360																																																	-545.79114	459.12003	-1479.09961							
38	0.370																																																	-546.06464	459.80481	-1478.64795							
39	0.380																																																	-546.08832	458.38055	-1481.54553							
40	0.390																																																	-546.20966	458.31265	-1481.69507							
41	0.400																																																	-546.20166	458.35452	-1481.68677							
42	0.410																																																	-546.56653	459.81931	-1480.87732							
43	0.420																																																	-546.49438	459.10754	-1481.90100							
44	0.430																																																	-546.51709	459.09314	-1481.92896							
45	0.440																																																	-546.67450	458.91812	-1483.46118							
46	0.450																																																	-546.50470	459.11945	-1481.91455							
47	0.460																																																	-546.30328	458.31650	-1481.81287							
48	0.470																																																	-546.54877	457.75580	-1485.16357							
49	0.480																																																	-546.58618	457.73843	-1485.20984							
50	0.490																																																	-546.67938	458.40286	-1484.78455							
51	0.500																																																	-546.67932	458.95520	-1483.46887							
52	0.510																																																	-546.70264	458.39343	-1484.81335							
53	0.520																																																	-546.69653	458.94437	-1483.48999							
54	0.530																																																	-546.70526	458.93839	-1483.50073							
55	0.540																																																	-546.60358	459.09564	-1482.03784							
56	0.550																																																	-546.77979	458.88577	-1483.59216							
57	0.560																																																	-546.65375	459.05466	-1482.09912							
58	0.570																																																	-547.21173	458.77942	-1482.45313							
59	0.580																																																	-547.39429	458.59564	-1484.01672							
60	0.590																																																	-547.47363	458.54605	-1484.11438							
61	0.600																																																	-547.51575	459.19666	-1483.02124							
62	0.610																																																	-548.06793	459.13474	-1483.34314							
63	0.620																																																	-548.07520	459.12823	-1483.35193							
64	0.630																																																	-548.08313	459.12451	-1483.36182							
65	0.640																																																	-548.08801	459.13971	-1483.36853							
66	0.650																																																	-548.11963	458.54907	-1484.70154							
67	0.660																																																	-548.10938	458.56161	-1484.68921							
68	0.670																																																	-548.09143	459.13394	-1483.37268							
69	0.680																																																	-548.11304	458.56104	-1484.69385							
70	0.690																																																	-548.07111	459.13531	-1483.34717							
71	0.700																																																	-548.06970	459.13248	-1483.34521							
72	0.710																																																	-548.08856	459.12027	-1483.36841							
73	0.720																																																	-548.02338	458.50943	-1484.43433							
74	0.730																																																	-547.50714	458.54807	-1484.15649							
75	0.740																																																	-547.49329	458.55716	-1484.13953							
76	0.750																																																	-547.50604	458.01868	-1485.47205							
77	0.760																																																	-547.44141	458.05878	-1485.39246							
78	0.770																																																	-547.42712	458.60947	-1484.05872							
79	0.780																																																	-546.90558	458.97443	-1483.89868							
80	0.790																																																	-546.88708	458.97260	-1483.87537							
81	0.800																																																	-546.82678	458.36111	-1484.96814							
82	0.810																																																	-546.81506	458.36334	-1484.95349							
83	0.820																																																	-546.82898	458.35907	-1484.97083							
84	0.830																																																	-546.82813	458.35345	-1484.96948							
85	0.840																																																	-546.82239	458.35294	-1484.96228							
86	0.850																																																	-546.82642	458.99268	-1483.80005							
87	0.860																																																	-546.81799	458.35922	-1484.95703							
88	0.870																																																	-546.83099	458.33093	-1484.97217							
89	0.880																																																	-546.82733	458.34323	-1484.96814							
90	0.890																																																	-546.83289	458.32767	-1484.97437							
91	0.900																																																	-546.83289	458.31699	-1484.97400							
92	0.910																																																	-546.86395	458.95993	-1483.84570							
93	0.920																																																	-546.80341	458.87289	-1483.62122							
94	0.930																																																	-546.82678	458.32346	-1484.96655							
95	0.940																																																	-546.85034	458.29602	-1484.99487							
96	0.950																																																	-546.84357	459.52319	-1482.52588							
97	0.960																																																	-546.80786	458.33435	-1484.94312							
98	0.970																																																	-546.85962	458.31177	-1485.00732							
99	0.980																																																	-547.38550	458.59933	-1484.00586							
100	0.990																																																	-547.45441	459.20337	-1482.94446							
101	1.000																																																	-547.44415	459.23065	-1482.93274							
102	1.010																																																	-547.45001	458.02994	-1485.40198							
